<svg xmlns="http://www.w3.org/2000/svg" version="1.1" xmlns:xlink="http://www.w3.org/1999/xlink" xmlns:svgjs="http://svgjs.dev/svgjs" width="1000" height="214" viewBox="0 0 1000 214"><g transform="matrix(1,0,0,1,-0.6060529130701298,0.2069195018095087)"><svg viewBox="0 0 396 85" data-background-color="#97978d" preserveAspectRatio="xMidYMid meet" height="214" width="1000" xmlns="http://www.w3.org/2000/svg" xmlns:xlink="http://www.w3.org/1999/xlink"><g id="tight-bounds" transform="matrix(1,0,0,1,0.2399969535757691,-0.08218765258789062)"><svg viewBox="0 0 395.52 85.16437183675139" height="85.16437183675139" width="395.52"><rect width="395.5199890136719" height="85.16437530517578" fill="url(#cbccbea9-e158-415d-aa41-0d6623be67a9)" mask="url(&quot;#e42e307d-380a-4978-a2e3-0ffea75821ae&quot;)" data-fill-palette-color="accent"></rect><g><svg viewBox="0 0 508.8176121722504 109.55990169934641" height="85.16437183675139" width="395.52"><g transform="matrix(1,0,0,1,113.2976121722505,15.14178091503269)"><svg viewBox="0 0 395.5199999999999 79.27633986928103" height="79.27633986928103" width="395.5199999999999"><g id="textblocktransform"><svg viewBox="0 0 395.5199999999999 79.27633986928103" height="79.27633986928103" width="395.5199999999999" id="textblock"><g><svg viewBox="0 0 395.5199999999999 79.27633986928103" height="79.27633986928103" width="395.5199999999999"><g transform="matrix(1,0,0,1,0,0)"><svg width="395.5199999999999" viewBox="0.6000000238418579 -35.79999923706055 183.58999633789062 36.79999923706055" height="79.27633986928103" data-palette-color="#ffffff"><g class="undefined-text-0" data-fill-palette-color="primary" id="text-0"><path d="M33.45-34.8L35.65 0 25.9 0 25.85-12.5 25.85-16.4Q25.85-21.9 26.1-26.45L26.1-26.45 22.85-3.55 13.35-3.55 9.85-26.45Q10.35-19.25 10.35-14.2L10.35-14.2 10.35-12.5 10.25 0 0.6 0 2.8-34.8 15.15-34.8 18.25-12.15 21-34.8 33.45-34.8ZM37.95-34.8L48.05-34.8 48.05 0 37.95 0 37.95-34.8ZM77.55-34.8L77.55 0 65.15 0 58.9-25.85 59.05-24.65Q59.59-20.95 59.9-17.85 60.2-14.75 60.2-11L60.2-11 60.2 0 51.5 0 51.5-34.8 63.8-34.8 70.2-8.85 70.05-9.85Q69.45-13.8 69.15-16.65 68.84-19.5 68.84-23.35L68.84-23.35 68.84-34.8 77.55-34.8ZM79.44-34.8L104.79-34.8 103.79-27.3 96.94-27.3 96.94 0 86.84 0 86.84-27.3 79.44-27.3 79.44-34.8ZM106.19-34.8L127.39-34.8 126.39-27.8 116.29-27.8 116.29-21.05 125.19-21.05 125.19-14.25 116.29-14.25 116.29-7.1 127.09-7.1 127.09 0 106.19 0 106.19-34.8ZM145.09-35.8Q148.54-35.8 151.44-34.58 154.34-33.35 156.49-31.3L156.49-31.3 151.74-26.3Q150.09-27.6 148.74-28.18 147.39-28.75 145.69-28.75L145.69-28.75Q142.39-28.75 140.84-26.15 139.29-23.55 139.29-17.4L139.29-17.4Q139.29-12.9 139.76-10.48 140.24-8.05 141.21-7.1 142.19-6.15 143.89-6.15L143.89-6.15Q145.44-6.15 146.89-7L146.89-7 146.89-13.6 143.99-13.6 143.09-20.4 156.44-20.4 156.44-2.95Q153.84-1.1 150.56-0.08 147.29 0.95 144.19 0.95L144.19 0.95Q136.24 0.95 132.56-3.6 128.89-8.15 128.89-17.45L128.89-17.45Q128.89-23.45 130.96-27.58 133.04-31.7 136.71-33.75 140.39-35.8 145.09-35.8L145.09-35.8ZM171.53-35.8Q175.34-35.8 178.24-34.6 181.13-33.4 183.44-31.1L183.44-31.1 179.13-25.9Q175.99-28.65 172.69-28.65L172.69-28.65Q171.03-28.65 170.24-27.93 169.44-27.2 169.44-26L169.44-26Q169.44-25.1 169.88-24.53 170.34-23.95 171.44-23.38 172.53-22.8 174.88-21.9L174.88-21.9Q178.24-20.6 180.24-19.13 182.24-17.65 183.21-15.55 184.19-13.45 184.19-10.4L184.19-10.4Q184.19-7.05 182.56-4.45 180.94-1.85 177.88-0.43 174.84 1 170.69 1L170.69 1Q162.88 1 157.69-4.2L157.69-4.2 162.53-9.55Q166.24-6.25 170.03-6.25L170.03-6.25Q171.94-6.25 172.81-7.15 173.69-8.05 173.69-9.5L173.69-9.5Q173.69-11.05 172.69-12.03 171.69-13 168.88-14.05L168.88-14.05Q163.38-16.15 161.21-18.7 159.03-21.25 159.03-25.1L159.03-25.1Q159.03-28.35 160.66-30.78 162.28-33.2 165.13-34.5 167.99-35.8 171.53-35.8L171.53-35.8Z" fill="#ffffff" data-fill-palette-color="primary"></path></g></svg></g></svg></g></svg></g></svg></g><g><svg viewBox="0 0 94.58237096127012 109.55990169934641" height="109.55990169934641" width="94.58237096127012"><g><svg xmlns="http://www.w3.org/2000/svg" xmlns:xlink="http://www.w3.org/1999/xlink" version="1.1" x="0" y="0" viewBox="9.63800048828125 3.246999979019165 80.7239990234375 93.50699615478516" enable-background="new 0 0 100 100" xml:space="preserve" height="109.55990169934641" width="94.58237096127012" class="icon-icon-0" data-fill-palette-color="accent" id="icon-0"></svg></g></svg></g></svg></g><defs><linearGradient x1="0.054" x2="0.941" y1="0.5" y2="0.5" id="cbccbea9-e158-415d-aa41-0d6623be67a9"><stop stop-color="#0f3054" offset="0"></stop><stop stop-color="#3b8dcb" offset="0.498"></stop><stop stop-color="#0f3054" offset="1"></stop></linearGradient></defs><mask id="e42e307d-380a-4978-a2e3-0ffea75821ae"><g id="SvgjsG1249"><svg viewBox="0 0 395.52 85.16437183675139" height="85.16437183675139" width="395.52"><g><svg viewBox="0 0 508.8176121722504 109.55990169934641" height="85.16437183675139" width="395.52"><g transform="matrix(1,0,0,1,113.2976121722505,15.14178091503269)"><svg viewBox="0 0 395.5199999999999 79.27633986928103" height="79.27633986928103" width="395.5199999999999"><g id="SvgjsG1248"><svg viewBox="0 0 395.5199999999999 79.27633986928103" height="79.27633986928103" width="395.5199999999999" id="SvgjsSvg1247"><g><svg viewBox="0 0 395.5199999999999 79.27633986928103" height="79.27633986928103" width="395.5199999999999"><g transform="matrix(1,0,0,1,0,0)"><svg width="395.5199999999999" viewBox="0.6000000238418579 -35.79999923706055 183.58999633789062 36.79999923706055" height="79.27633986928103" data-palette-color="#ffffff"><g class="undefined-text-0" data-fill-palette-color="primary" id="SvgjsG1246"></g></svg></g></svg></g></svg></g></svg></g><g><svg viewBox="0 0 94.58237096127012 109.55990169934641" height="109.55990169934641" width="94.58237096127012"><g><svg xmlns="http://www.w3.org/2000/svg" xmlns:xlink="http://www.w3.org/1999/xlink" version="1.1" x="0" y="0" viewBox="9.63800048828125 3.246999979019165 80.7239990234375 93.50699615478516" enable-background="new 0 0 100 100" xml:space="preserve" height="109.55990169934641" width="94.58237096127012" class="icon-icon-0" data-fill-palette-color="accent" id="SvgjsSvg1245"><g fill="white"><g fill="white"><polygon points="36.703,11.011 9.638,26.636 9.638,38.757 36.703,23.131 63.767,38.757 63.767,26.636   " fill="white"></polygon></g><g fill="white"><polygon points="63.298,89.092 36.233,73.467 36.233,61.348 63.298,76.973 90.362,61.348 90.362,73.467   " fill="white"></polygon></g><g fill="white"><polygon points="9.638,42.012 36.703,26.386 47.198,32.446 20.134,48.072 20.134,79.324 9.638,73.264   " fill="white"></polygon></g><g fill="white"><polygon points="77.083,18.872 50.018,3.247 39.522,9.307 66.586,24.932 66.586,56.184 77.083,50.124   " fill="white"></polygon></g><g fill="white"><polygon points="23.01,81.127 23.011,49.876 33.507,43.816 33.507,75.068 60.571,90.693 50.075,96.754   " fill="white"></polygon></g><g fill="white"><polygon points="90.362,58.092 90.362,26.84 79.866,20.78 79.866,52.031 52.802,67.658 63.298,73.719   " fill="white"></polygon></g></g></svg></g></svg></g></svg></g><defs><linearGradient x1="0.054" x2="0.941" y1="0.5" y2="0.5" id="SvgjsLinearGradient1244"><stop stop-color="#0f3054" offset="0"></stop><stop stop-color="#3b8dcb" offset="0.498"></stop><stop stop-color="#0f3054" offset="1"></stop></linearGradient><mask></mask></defs></svg></g></mask></svg><rect width="395.52" height="85.16437183675139" fill="none" stroke="none" visibility="hidden"></rect></g></svg></g></svg>